<svg width="100" height="100" viewBox="0 0 100 100" fill="none" xmlns="http://www.w3.org/2000/svg">
    <defs>
        <linearGradient id="leafGradient" x1="50" y1="20" x2="50" y2="80" gradientUnits="userSpaceOnUse">
            <stop offset="0%" stop-color="#8BC34A"/>
            <stop offset="100%" stop-color="#4CAF50"/>
        </linearGradient>
        <linearGradient id="arrowGradient" x1="80" y1="20" x2="20" y2="80" gradientUnits="userSpaceOnUse">
            <stop offset="0%" stop-color="#FFD54F"/>
            <stop offset="100%" stop-color="#FFA000"/>
        </linearGradient>
    </defs>
    <!-- Circular Arrow -->
    <path d="M85 50C85 69.33 69.33 85 50 85C30.67 85 15 69.33 15 50C15 30.67 30.67 15 50 15V5C25.15 5 5 25.15 5 50C5 74.85 25.15 95 50 95C74.85 95 95 74.85 95 50H85Z" fill="url(#arrowGradient)"/>
    <path d="M95 50L80 35V65L95 50Z" fill="#FFA000"/>
    
    <!-- Central Leaf -->
    <path d="M50 20C50 20 75 40 75 65C75 75 65 85 50 85C35 85 25 75 25 65C25 40 50 20 50 20Z" fill="url(#leafGradient)"/>
    <path d="M50 20V85" stroke="white" stroke-width="1.5" stroke-linecap="round" opacity="0.4"/>
    <path d="M50 40C60 45 65 55 65 55" stroke="white" stroke-width="1" stroke-linecap="round" opacity="0.3"/>
    <path d="M50 55C40 60 35 70 35 70" stroke="white" stroke-width="1" stroke-linecap="round" opacity="0.3"/>
</svg>
